<svg width="118" height="145" viewBox="0 0 118 145" fill="none" xmlns="http://www.w3.org/2000/svg">
<path d="M16.5113 133.316C16.4488 133.823 16.648 134.326 17.04 134.653C17.432 134.979 17.9631 135.084 18.4497 134.931L35.1977 129.667L50.5765 141.682C50.9989 142.012 51.5652 142.092 52.0621 141.891C52.559 141.69 52.9109 141.239 52.9854 140.708L56.9854 112.208C57.0778 111.55 56.7259 110.91 56.1207 110.634L23.1207 95.6345C22.686 95.4369 22.1833 95.458 21.7668 95.6914C21.3502 95.9248 21.0697 96.3426 21.0113 96.8165L16.5113 133.316Z" fill="#FFD567" stroke="#00263E" stroke-width="3" stroke-linecap="round" stroke-linejoin="round"/>
<path d="M18 133.5L22.5 97L28.5 99L24 131.5L18 133.5Z" fill="#E3B845"/>
<path d="M103.989 133.316C104.051 133.823 103.852 134.326 103.46 134.653C103.068 134.979 102.537 135.084 102.05 134.931L85.3023 129.667L69.9235 141.682C69.5011 142.012 68.9348 142.092 68.4379 141.891C67.941 141.69 67.5891 141.239 67.5146 140.708L63.5146 112.208C63.4222 111.55 63.7741 110.91 64.3793 110.634L97.3793 95.6345C97.814 95.4369 98.3167 95.458 98.7332 95.6914C99.1498 95.9248 99.4303 96.3426 99.4887 96.8165L103.989 133.316Z" fill="#FFD567" stroke="#00263E" stroke-width="3" stroke-linecap="round" stroke-linejoin="round"/>
<path d="M74 136.5L70.5 113.5L65.4 115L69 140.5L74 136.5Z" fill="#E3B845"/>
<path d="M93.2508 16.9548C93.0253 14.2535 91.6461 12.1775 89.6354 10.987C87.7541 9.87323 85.4284 9.60052 83.2238 10.2C82.4573 7.79073 80.4298 6.17894 78.2132 5.4848C76.1311 4.83281 73.6811 4.91722 71.6272 5.97989C70.4618 3.85545 68.1088 2.79124 65.9136 2.58199C63.7843 2.37902 61.3079 2.9231 59.6197 4.42998C57.9048 2.85102 55.4746 2.32185 53.3082 2.55268C51.1153 2.78633 48.8186 3.83816 47.4713 5.75603C45.3317 4.5638 42.8337 4.51817 40.7034 5.27355C38.6032 6.01829 36.7232 7.59206 35.8223 9.77563C33.475 8.99477 31.1081 9.41452 29.2157 10.6538C27.3363 11.8846 25.9491 13.9014 25.4524 16.2765C22.8949 15.9943 20.6108 16.9008 19.0667 18.6402C17.6391 20.2485 16.9394 22.4581 17.1448 24.8379C14.6028 24.8739 12.4977 26.2483 11.2439 28.208C10.0263 30.1114 9.58889 32.5884 10.255 34.9618C9.41647 35.1771 8.66292 35.5559 8.00841 36.0703C6.81946 37.0049 6.04326 38.3172 5.61792 39.7001C4.97478 41.7913 5.0679 44.2767 5.9891 46.3513C3.81538 47.6071 2.78346 50.094 2.62968 52.3818C2.48855 54.4816 3.04513 56.8705 4.47098 58.5642C2.69796 60.2367 2.28133 62.8658 2.60325 65.0658C2.82145 66.557 3.38241 68.04 4.2398 69.2476C4.65516 69.8326 5.15683 70.3746 5.74097 70.817C4.49373 72.7981 4.52677 75.3163 5.22416 77.3583C5.93309 79.4341 7.49187 81.4976 9.67768 82.3231C9.04701 84.7439 9.425 87.1081 10.619 88.9965C11.8077 90.8766 13.7501 92.1946 16.0928 92.6196C15.8515 95.2163 16.7118 97.509 18.4203 99.09C20.0256 100.576 22.2437 101.308 24.6622 101.173C24.7697 103.617 26.2302 105.678 28.1462 106.895C30.0233 108.087 32.479 108.57 34.8015 107.849C35.0412 108.683 35.4333 109.43 35.9551 110.078C36.906 111.258 38.2166 112.022 39.6082 112.435C41.7354 113.067 44.2222 112.932 46.3633 112.039C47.5244 114.266 50.0372 115.281 52.2908 115.415C54.3424 115.537 56.7313 114.978 58.3754 113.553C60.0628 115.228 62.6161 115.696 64.7933 115.426C66.9358 115.161 69.2793 114.116 70.6017 112.253C72.7275 113.537 75.2633 113.457 77.3708 112.622C79.417 111.811 81.304 110.199 82.2235 108.114C86.741 109.686 91.8599 106.781 92.4416 101.68C95.1441 102.013 97.5006 101.01 99.0681 99.2578C100.504 97.6527 101.245 95.4499 101 93.2214C103.655 93.0282 105.676 91.6898 106.833 89.637C107.922 87.7045 108.157 85.2975 107.629 82.9404C108.586 82.7231 109.434 82.2977 110.154 81.7062C111.344 80.7293 112.1 79.3708 112.488 77.9562C113.048 75.9153 112.899 73.4995 111.906 71.5327C114.126 70.3455 115.196 67.9637 115.367 65.6781C115.528 63.5177 114.929 61.086 113.509 59.3302C115.314 57.6484 115.732 55.0521 115.385 52.8352C115.054 50.7152 113.961 48.4406 112.213 47.0748C113.523 44.9776 113.477 42.4556 112.647 40.3626C111.853 38.3595 110.258 36.53 108.168 35.667C108.939 33.4253 108.666 31.0185 107.543 29.0951C106.4 27.1366 104.405 25.7248 101.868 25.4507C102.626 20.6345 98.4971 16.3265 93.2508 16.9548Z" fill="#FF797D" stroke="#00263E" stroke-width="3"/>
<path d="M59 96.5C79.7107 96.5 96.5 79.7107 96.5 59C96.5 38.2893 79.7107 21.5 59 21.5C38.2893 21.5 21.5 38.2893 21.5 59C21.5 79.7107 38.2893 96.5 59 96.5Z" fill="#CB333B" stroke="#E5454C" stroke-width="5"/>
<path d="M48.8292 61.878C48.9505 61.878 49.0438 61.934 49.1092 62.046C49.1838 62.158 49.2212 62.312 49.2212 62.508C49.2212 62.872 49.1325 63.1613 48.9552 63.376C48.4325 64.0013 47.9238 64.44 47.4292 64.692C46.9438 64.944 46.3558 65.07 45.6652 65.07C45.1798 65.07 44.7318 65.0093 44.3212 64.888C43.9105 64.7667 43.4112 64.5847 42.8232 64.342C42.2912 64.1087 41.7778 63.9173 41.2832 63.768C40.8072 64.636 40.0932 65.07 39.1412 65.07C38.6185 65.07 38.2032 64.9533 37.8952 64.72C37.5778 64.4773 37.4192 64.1693 37.4192 63.796C37.4192 63.3387 37.6385 62.9607 38.0772 62.662C38.5158 62.354 39.0992 62.2 39.8272 62.2H40.0092L40.2612 58.126C40.3172 57.1927 40.4852 56.4227 40.7652 55.816C41.0452 55.2093 41.4325 54.6913 41.9272 54.262C42.3565 53.8887 42.8465 53.6087 43.3972 53.422C43.9478 53.226 44.5312 53.128 45.1472 53.128C46.1552 53.128 46.9298 53.3893 47.4712 53.912C48.0125 54.4347 48.2832 55.116 48.2832 55.956C48.2832 56.5253 48.1805 56.9873 47.9752 57.342C47.7698 57.6873 47.4852 57.86 47.1212 57.86C46.8598 57.86 46.6545 57.7993 46.5052 57.678C46.3558 57.5473 46.2812 57.3653 46.2812 57.132C46.2812 57.048 46.2998 56.894 46.3372 56.67C46.3932 56.4087 46.4212 56.1753 46.4212 55.97C46.4212 55.578 46.3045 55.27 46.0712 55.046C45.8472 54.8127 45.5018 54.696 45.0352 54.696C44.2138 54.696 43.5792 54.9667 43.1312 55.508C42.6832 56.04 42.3985 56.88 42.2772 58.028L41.9552 61.206C41.9085 61.654 41.8478 62.0413 41.7732 62.368C42.3705 62.4707 43.1172 62.634 44.0132 62.858C44.5358 62.9887 44.9372 63.082 45.2172 63.138C45.4972 63.194 45.7445 63.222 45.9592 63.222C46.5005 63.222 46.9625 63.1333 47.3452 62.956C47.7372 62.7693 48.1058 62.4753 48.4512 62.074C48.5632 61.9433 48.6892 61.878 48.8292 61.878ZM55.4502 61.878C55.5715 61.878 55.6648 61.934 55.7302 62.046C55.8048 62.158 55.8422 62.312 55.8422 62.508C55.8422 62.8813 55.7535 63.1707 55.5762 63.376C55.2308 63.796 54.7408 64.1833 54.1062 64.538C53.4808 64.8927 52.8088 65.07 52.0902 65.07C51.1102 65.07 50.3495 64.804 49.8082 64.272C49.2668 63.74 48.9962 63.012 48.9962 62.088C48.9962 61.444 49.1315 60.8467 49.4022 60.296C49.6728 59.736 50.0462 59.2927 50.5222 58.966C51.0075 58.6393 51.5535 58.476 52.1602 58.476C52.7015 58.476 53.1355 58.6393 53.4622 58.966C53.7888 59.2833 53.9522 59.7173 53.9522 60.268C53.9522 60.912 53.7188 61.4673 53.2522 61.934C52.7948 62.3913 52.0155 62.7553 50.9142 63.026C51.1475 63.4553 51.5908 63.67 52.2442 63.67C52.6642 63.67 53.1402 63.5253 53.6722 63.236C54.2135 62.9373 54.6802 62.55 55.0722 62.074C55.1842 61.9433 55.3102 61.878 55.4502 61.878ZM51.9222 59.848C51.5768 59.848 51.2828 60.0487 51.0402 60.45C50.8068 60.8513 50.6902 61.3367 50.6902 61.906V61.934C51.2408 61.8033 51.6748 61.6073 51.9922 61.346C52.3095 61.0847 52.4682 60.7813 52.4682 60.436C52.4682 60.2587 52.4168 60.1187 52.3142 60.016C52.2208 59.904 52.0902 59.848 51.9222 59.848ZM61.7006 60.744C61.7286 60.7347 61.7753 60.73 61.8406 60.73C61.9806 60.73 62.088 60.7767 62.1626 60.87C62.2373 60.9633 62.2746 61.0893 62.2746 61.248C62.2746 61.5373 62.2186 61.766 62.1066 61.934C61.9946 62.0927 61.8266 62.2093 61.6026 62.284C61.1733 62.424 60.716 62.494 60.2306 62.494C59.82 62.494 59.4326 62.438 59.0686 62.326C58.798 62.7647 58.4993 63.2173 58.1726 63.684C57.7993 64.216 57.4773 64.58 57.2066 64.776C56.936 64.972 56.628 65.07 56.2826 65.07C55.9 65.07 55.5966 64.9207 55.3726 64.622C55.158 64.3233 55.0226 63.852 54.9666 63.208C54.8546 61.9013 54.7986 60.758 54.7986 59.778V59.288C54.808 58.98 54.892 58.7653 55.0506 58.644C55.2093 58.5227 55.4473 58.462 55.7646 58.462C56.0073 58.462 56.1846 58.518 56.2966 58.63C56.418 58.7327 56.4786 58.91 56.4786 59.162C56.4786 60.2353 56.544 61.6307 56.6746 63.348C57.2346 62.5173 57.6546 61.8547 57.9346 61.36C57.7946 61.0893 57.7246 60.7673 57.7246 60.394C57.7246 60.0767 57.7946 59.7687 57.9346 59.47C58.0746 59.1713 58.266 58.9287 58.5086 58.742C58.7513 58.5553 59.0266 58.462 59.3346 58.462C59.6053 58.462 59.8246 58.56 59.9926 58.756C60.1606 58.9427 60.2446 59.218 60.2446 59.582C60.2446 60.002 60.1326 60.4827 59.9086 61.024C60.2633 61.0053 60.7346 60.9353 61.3226 60.814L61.7006 60.744ZM67.3037 61.878C67.425 61.878 67.5184 61.934 67.5837 62.046C67.6584 62.158 67.6957 62.312 67.6957 62.508C67.6957 62.8813 67.607 63.1707 67.4297 63.376C67.0844 63.796 66.5944 64.1833 65.9597 64.538C65.3344 64.8927 64.6624 65.07 63.9437 65.07C62.9637 65.07 62.203 64.804 61.6617 64.272C61.1204 63.74 60.8497 63.012 60.8497 62.088C60.8497 61.444 60.985 60.8467 61.2557 60.296C61.5264 59.736 61.8997 59.2927 62.3757 58.966C62.861 58.6393 63.407 58.476 64.0137 58.476C64.555 58.476 64.989 58.6393 65.3157 58.966C65.6424 59.2833 65.8057 59.7173 65.8057 60.268C65.8057 60.912 65.5724 61.4673 65.1057 61.934C64.6484 62.3913 63.869 62.7553 62.7677 63.026C63.001 63.4553 63.4444 63.67 64.0977 63.67C64.5177 63.67 64.9937 63.5253 65.5257 63.236C66.067 62.9373 66.5337 62.55 66.9257 62.074C67.0377 61.9433 67.1637 61.878 67.3037 61.878ZM63.7757 59.848C63.4304 59.848 63.1364 60.0487 62.8937 60.45C62.6604 60.8513 62.5437 61.3367 62.5437 61.906V61.934C63.0944 61.8033 63.5284 61.6073 63.8457 61.346C64.163 61.0847 64.3217 60.7813 64.3217 60.436C64.3217 60.2587 64.2704 60.1187 64.1677 60.016C64.0744 59.904 63.9437 59.848 63.7757 59.848ZM70.6018 63.026C70.7045 62.9327 70.8071 62.886 70.9098 62.886C71.0218 62.886 71.1105 62.9513 71.1758 63.082C71.2505 63.2033 71.2878 63.3527 71.2878 63.53C71.2878 63.922 71.1478 64.2347 70.8678 64.468C70.3825 64.8693 69.8318 65.07 69.2158 65.07C68.3291 65.07 67.6805 64.7013 67.2698 63.964C66.8591 63.2173 66.6538 62.2467 66.6538 61.052C66.6538 59.9133 66.7985 58.616 67.0878 57.16C67.3865 55.704 67.8205 54.4533 68.3898 53.408C68.9685 52.3627 69.6545 51.84 70.4478 51.84C70.8958 51.84 71.2458 52.05 71.4978 52.47C71.7591 52.8807 71.8898 53.4733 71.8898 54.248C71.8898 55.3587 71.5818 56.6467 70.9658 58.112C70.3591 59.5773 69.5285 61.024 68.4738 62.452C68.5391 62.8347 68.6558 63.11 68.8238 63.278C68.9918 63.446 69.2205 63.53 69.5098 63.53C69.6685 63.53 69.8458 63.4833 70.0418 63.39C70.2471 63.2967 70.4338 63.1753 70.6018 63.026ZM70.1398 53.226C69.9251 53.226 69.6825 53.6133 69.4118 54.388C69.1411 55.1627 68.9031 56.124 68.6978 57.272C68.4925 58.42 68.3805 59.5213 68.3618 60.576C69.0245 59.484 69.5518 58.392 69.9438 57.3C70.3358 56.1987 70.5318 55.1953 70.5318 54.29C70.5318 53.5807 70.4011 53.226 70.1398 53.226ZM77.4872 65.07C77.2538 65.07 77.0485 65 76.8712 64.86C76.6938 64.72 76.6052 64.5007 76.6052 64.202L76.6192 64.048C76.7218 63.0867 76.8432 62.088 76.9832 61.052C77.1325 60.0067 77.2585 59.204 77.3612 58.644L76.2692 58.952L76.1012 58.98C75.9238 58.98 75.7838 58.91 75.6812 58.77C75.5785 58.63 75.5272 58.4713 75.5272 58.294L75.5412 58.168C75.5598 57.9907 75.6158 57.846 75.7092 57.734C75.8025 57.622 75.9798 57.51 76.2412 57.398C76.5118 57.286 76.9132 57.1647 77.4452 57.034L78.0332 56.894C78.2478 56.8473 78.4252 56.824 78.5652 56.824C78.8358 56.824 79.0365 56.894 79.1672 57.034C79.3072 57.174 79.3772 57.37 79.3772 57.622C79.3772 57.734 79.3632 57.8553 79.3352 57.986C79.1858 58.714 78.9012 60.786 78.4812 64.202C78.4065 64.7807 78.0752 65.07 77.4872 65.07Z" fill="#FEF3F1"/>
</svg>
